<svg xmlns="http://www.w3.org/2000/svg" viewBox="0 0 859.28 168.31"><defs><style>.cls-1{font-size:150px;font-family:Calibri-BoldItalic, Calibri;font-weight:700;font-style:italic;}.cls-1,.cls-6{fill:#fff;}.cls-2{letter-spacing:-0.01em;}.cls-3{letter-spacing:-0.03em;}.cls-4{letter-spacing:-0.01em;}.cls-5{letter-spacing:0em;}</style></defs><title>Asset 1</title><g id="Layer_2" data-name="Layer 2"><g id="Layer_1-2" data-name="Layer 1"><text class="cls-1" transform="translate(172.67 122.39)"><tspan class="cls-2">F</tspan><tspan class="cls-3" x="67.75" y="0">O</tspan><tspan x="163.33" y="0">X SHO</tspan><tspan class="cls-4" x="544.56" y="0">E</tspan><tspan class="cls-5" x="616.26" y="0">S</tspan></text><path class="cls-6" d="M139.56,51.8c3.58-6.8,4.44-15.95,2.54-27.26A90.92,90.92,0,0,0,138,9l-1.68-4.44L131.61,5a88.06,88.06,0,0,0-15.69,3.11c-8.24,2.43-14.72,5.76-19.37,9.94a58.65,58.65,0,0,0-38.1,0c-4.65-4.18-11.13-7.51-19.37-9.94A88.06,88.06,0,0,0,23.39,5l-4.74-.41L17,9A90.92,90.92,0,0,0,12.9,24.54C11,35.85,11.86,45,15.44,51.8,5.64,66,0,82.06,0,96.56v4.21l77.5,31.91L155,100.77V96.56C155,82.06,149.36,66,139.56,51.8ZM127.8,18.2c1.68,5.95,3.43,14.89,2.39,22A88.06,88.06,0,0,0,109.85,24C115.48,20.94,122.57,19.12,127.8,18.2ZM77.5,27.44c13.4,0,27.44,6.23,39.43,17.31a50.37,50.37,0,0,0-40,26.83A50.3,50.3,0,0,0,36,46.7C48.44,34.4,63.33,27.44,77.5,27.44ZM27.19,18.22a74.68,74.68,0,0,1,8.53,2A49.59,49.59,0,0,1,45.14,24,88.26,88.26,0,0,0,24.79,40.23C23.72,33.14,25.47,24.25,27.19,18.22ZM77.5,119.09,12.75,92.43C13.67,81.92,18,70.57,24.92,60.19A37.72,37.72,0,0,1,70.28,88.53h14a37.75,37.75,0,0,1,44.08-30.79c7.92,11,12.87,23.35,13.86,34.69Z"/><circle class="cls-6" cx="108.92" cy="82.24" r="6.28"/><circle class="cls-6" cx="46.08" cy="82.24" r="6.28"/><path class="cls-6" d="M81.69,96.91H73.31a4.19,4.19,0,0,0-4.19,4.19c0,4.19,8.38,8.38,8.38,8.38s8.38-4.19,8.38-8.38A4.19,4.19,0,0,0,81.69,96.91Z"/></g></g></svg>