<svg xmlns="http://www.w3.org/2000/svg" viewBox="0 0 844.14 180"><defs><style>.cls-1{fill:#fff;}.cls-2{font-size:149.42px;fill:#f2f2f2;font-family:Calibri-Bold, Calibri;font-weight:700;}.cls-3{letter-spacing:-0.01em;}.cls-4{letter-spacing:-0.03em;}.cls-5{fill:#ccc;}</style></defs><title>Asset 4</title><g id="Layer_2" data-name="Layer 2"><g id="Layer_1-2" data-name="Layer 1"><path class="cls-1" d="M155.77,52.69c4-7.58,5-17.8,2.83-30.43A101,101,0,0,0,154.06,5l-1.88-5-5.29.46a98.38,98.38,0,0,0-17.5,3.47C120.19,6.64,113,10.36,107.76,15a65.61,65.61,0,0,0-42.52,0C60,10.36,52.81,6.64,43.61,3.93A98.23,98.23,0,0,0,26.1.46L20.82,0,18.94,5a100.7,100.7,0,0,0-4.54,17.3c-2.13,12.63-1.17,22.85,2.83,30.43C6.3,68.52,0,86.47,0,102.65v4.7L86.5,143,173,107.35v-4.7C173,86.47,166.7,68.52,155.77,52.69Zm-13.13-37.5c1.87,6.64,3.83,16.63,2.67,24.57A98.53,98.53,0,0,0,122.6,21.67C128.89,18.25,136.8,16.22,142.64,15.19ZM86.5,25.5c15,0,30.63,7,44,19.33A56.21,56.21,0,0,0,85.85,74.77,56.15,56.15,0,0,0,40.21,47C54.07,33.28,70.68,25.5,86.5,25.5ZM30.34,15.21a86.26,86.26,0,0,1,9.53,2.24,54.55,54.55,0,0,1,10.51,4.23,98.32,98.32,0,0,0-22.71,18.1C26.48,31.86,28.43,22,30.34,15.21ZM86.5,127.8,14.23,98c1-11.72,5.84-24.39,13.58-36A42.13,42.13,0,0,1,78.44,93.69H94.1a42.09,42.09,0,0,1,49.2-34.36c8.84,12.31,14.37,26.06,15.47,38.71Z"/><circle class="cls-1" cx="121.57" cy="86.67" r="7.01"/><circle class="cls-1" cx="51.43" cy="86.67" r="7.01"/><path class="cls-1" d="M91.18,103H81.82a4.67,4.67,0,0,0-4.67,4.68c0,4.67,9.35,9.35,9.35,9.35s9.35-4.68,9.35-9.35A4.67,4.67,0,0,0,91.18,103Z"/><text class="cls-2" transform="translate(198.67 127.83)"><tspan class="cls-3">F</tspan><tspan class="cls-4" x="67.49" y="0">O</tspan><tspan x="163.43" y="0">X </tspan><tspan class="cls-5" x="279.51" y="0">Shoes</tspan></text></g></g></svg>